<svg class="svgicon" id="svg23" preserveAspectRatio="xMidYMid meet" xmlns="http://www.w3.org/2000/svg" viewBox="0 0 128 128"><style> #svg23 path, #svg23 circle, #svg23 polygon, #svg23 rect { fill: rgb(66, 166, 255) } #svg23 defs &gt; path { fill: none }  #svg23 path[fill="none"], #svg23 circle[fill="none"], #svg23 polygon[fill="none"], #svg23 rect[fill="none"] { fill: none } </style><style type="text/css"> #svg23 .st0{fill:rgb(66, 166, 255);} </style><path class="st0" d="M99.938,68.339v-53.79c0-1.339-1.086-2.425-2.425-2.425c-0.671,0-1.277,0.271-1.717,0.711 c-4.666,0.648-8.308,5.584-8.308,11.563v22.438c0,5.202,2.844,14.294,7.6,16.147v5.355c-0.882,0.711-1.455,1.786-1.455,3.006 l-0.002,40.651c0,2.143,1.737,3.88,3.88,3.88s3.88-1.737,3.88-3.88l0.002-40.651C101.393,70.125,100.816,69.05,99.938,68.339z"></path><path class="st0" d="M77.108,15.865c-1.34,0-2.425,1.086-2.425,2.426v15.698c0,6.92-3.225,6.92-4.439,6.92h-0.377V19.32 c0-1.34-1.086-2.425-2.425-2.425c-1.34,0-2.425,1.085-2.425,2.425v21.589h-0.381c-1.215,0-4.439,0-4.439-6.919V18.291 c0-1.34-1.085-2.426-2.425-2.426c-1.339,0-2.425,1.086-2.425,2.426V33.99c0,10.622,6.496,11.77,9.289,11.77h0.381v22.579 c-0.881,0.711-1.455,1.786-1.455,3.006l-0.002,40.651c0,2.143,1.737,3.88,3.88,3.88s3.88-1.737,3.88-3.88l0.002-40.651 c0-1.22-0.576-2.295-1.455-3.006V45.76h0.377c2.793,0,9.289-1.147,9.289-11.771V18.291C79.533,16.951,78.447,15.865,77.108,15.865z "></path><path class="st0" d="M38.217,12.484c-6.511,0-11.609,7.201-11.609,16.395c0,8.016,3.877,14.514,9.185,16.048v23.412 c-0.881,0.711-1.455,1.786-1.455,3.006l-0.001,40.651c0,2.143,1.736,3.88,3.88,3.88c2.143,0,3.88-1.737,3.88-3.88l0.002-40.651 c0-1.22-0.576-2.295-1.455-3.006V44.927c5.307-1.535,9.183-8.032,9.183-16.048C49.825,19.686,44.725,12.484,38.217,12.484z"></path></svg>