<svg class="svgicon" id="svg25" preserveAspectRatio="xMidYMid meet" xmlns="http://www.w3.org/2000/svg" viewBox="0 0 128 128"><style> #svg25 path, #svg25 circle, #svg25 polygon, #svg25 rect { fill: rgb(66, 166, 255) } #svg25 defs &gt; path { fill: none }  #svg25 path[fill="none"], #svg25 circle[fill="none"], #svg25 polygon[fill="none"], #svg25 rect[fill="none"] { fill: none } </style><path d="M81.378,31.161c-6.719,0-12.96,3.274-16.713,8.763l-0.774,0.985l-0.517-0.659c-3.708-5.693-9.962-9.089-16.75-9.089 c-11.583,0-19.989,8.406-19.989,19.987c0,17.1,30.954,42.3,33.211,44.114c1.067,1.018,2.462,1.578,3.94,1.578 c1.48,0,2.874-0.56,3.942-1.58c2.264-1.825,33.637-27.425,33.637-44.112C101.365,39.567,92.959,31.161,81.378,31.161z M40.346,41.184c1.415-0.562-0.125,0.118-0.458,0.333c-0.643,0.417-1.277,0.974-1.868,1.687c-1.98,2.391-2.186,5.575-1.955,8.535 c0.294,3.717-5.49,3.567-5.779-0.114c-0.512-6.552,2.2-13.493,8.633-16.045C42.383,34.206,43.758,39.831,40.346,41.184z"></path></svg>