<?xml version="1.0" encoding="utf-8"?>
<!-- Generator: Adobe Illustrator 21.0.2, SVG Export Plug-In . SVG Version: 6.00 Build 0)  -->
<svg version="1.1" id="Layer_1" xmlns="http://www.w3.org/2000/svg" xmlns:xlink="http://www.w3.org/1999/xlink" x="0px" y="0px"
	 viewBox="0 0 256 256" style="enable-background:new 0 0 256 256;" xml:space="preserve">
<style type="text/css">
	.st0{fill:#98DAEF;}
	.st1{fill:#CBCBCB;}
	.st2{fill:#D5F1F9;}
	.st3{fill:#FEFEFE;}
	.st4{fill:#B2B2B2;}
	.st5{fill:#656566;}
	.st6{fill:#006633;}
	.st7{fill:#C67F01;}
	.st8{fill:#026532;}
	.st9{fill:#4C4C4D;}
	.st10{fill:#FEB72A;}
	.st11{fill:#014D0E;}
	.st12{fill:#CBCACB;}
	.st13{fill:#E6E6E6;}
	.st14{fill:#FEB510;}
	.st15{fill:#5E2B07;}
	.st16{fill:#D4C2CC;}
	.st17{fill:#FBDE99;}
	.st18{fill:#FDDF99;}
	.st19{fill:#FDDF9A;}
	.st20{fill:#F1D795;}
	.st21{fill:#F5DA97;}
	.st22{fill:#F6DA98;}
	.st23{fill:#3A1C0B;}
	.st24{fill:#3B1E0C;}
	.st25{fill:#3A1B0B;}
	.st26{fill:#371708;}
	.st27{fill:#391708;}
	.st28{fill:#3A1B0A;}
	.st29{fill:#381A0B;}
	.st30{fill:#200704;}
	.st31{fill:#3C200E;}
	.st32{fill:#170200;}
	.st33{fill:#1E0703;}
	.st34{fill:#2B120B;}
	.st35{fill:#290C02;}
	.st36{fill:#250402;}
	.st37{fill:#260501;}
	.st38{fill:#270903;}
	.st39{fill:#250704;}
	.st40{fill:#210C07;}
	.st41{fill:#290A03;}
	.st42{fill:#280A03;}
	.st43{fill:#2C1103;}
	.st44{fill:#2B0E05;}
	.st45{fill:#280C05;}
	.st46{fill:#1D0601;}
</style>
<g>
	<g>
		<path class="st0" d="M257,117c0,8,0,16,0,24c-1.1,3.3-0.1,6.8-1,10.2c-0.3,1.3-0.2,2.7-1.6,3.3c-6.5,0.3-12.6-2.2-18.9-3
			c-2.1-0.3-4.2-0.8-6.3-1.2c-3-1.2-4.9-3.3-4.9-6.7c-0.2-2.2,4.2-1,2.9-4c-1.8-2.8-3.7-5.5-5.5-8.3c-1.3-2-2.2-4-1.1-6.5
			c0.8-1.8-2.6-8.7-4.2-9.5c-0.5-0.2-1-0.4-1.3,0.1c-1.7,2.7-5.3,5.1-4.1,8.5c1.2,3.5,0,5.7-1.6,8.3c-1.2,2-2.6,3.9-3.8,5.8
			c-1,1.6-2.4,2.8,0.1,4.9c2.2,1.8,0.4,3.4-2,3.9c-6.2,0.8-12.2-1.2-18.3-0.9c-1.5,0.1-2.9-0.6-4-1.8c-1.7-2.1-1.4-4.7-1.4-7.2
			c-0.1-12.2,0-24.5,0-36.7c-0.8-2-2.5-3-4.2-4c-6.9-4.1-13.5-8.6-20.9-11.9c-9.8-0.9-19.6-0.3-29.4-0.4c-7.7-0.1-15.3,0-23,0
			c-2.8,0-5.1,0.7-6.9,3.1c-6,8.2-11.3,16.8-17.2,25.1c-1.5,7.9-0.3,15.9-0.7,23.9c-0.1,2.6,0.5,5.3-0.8,7.9c-1,1.2-2.4,2-3.9,1.9
			c-6.1-0.2-12.2,1.6-18.3,1c-3.6,0-4.1-2.5-4.4-5.3c-0.1-1.1-0.5-2.5-2-2.3c-1.1,0.1-1.2,1.4-1.4,2.4c-0.4,3.1-1.5,5.7-4.8,6.8
			c-11.3,2.1-22.8,3.5-34,6.1c-1.5,0.3-2.9,0.6-4.4,0.2c-2.9-2.6-1.4-6.2-2.1-9.2C1.1,143.6,2,141.7,1,140c0-7.3,0-14.7,0-22
			c1.2-3,0.6-6.2,0.8-9.3c2-26.3,14.3-47.8,31.4-67c4-4.5,7.8-9.6,13.8-12.1c9.3,0.3,18.5,1.9,27.8,1.6c3.3-0.1,5.3,2.3,7.2,4.8
			c5.7,7.6,12.8,13.6,22.3,15.9c14.7,3.5,27.4-0.5,37.6-11.4c3.7-4,7.2-5.4,12.6-4.7c14.9,1.7,28.4-2,39.7-12.2c1-0.9,2-1.7,3.3-2.2
			c2.7-0.8,4.9,0.6,6.9,2.1c25.3,18.4,42.3,42.7,50.4,72.9C256.5,103,256,110.1,257,117z"/>
		<path class="st1" d="M141,257c-8,0-16,0-24,0c-2.7-1.2-5.6-0.6-8.3-0.8c-25.5-1.9-46.6-13.6-65.5-29.9
			c-9.7-8.4-18.1-18.2-24.7-29.2c-1.4-2.3-3.7-4.6-1.3-7.6c2.3-1.2,4.6-0.5,6.8,0c34.4,7.6,69,14.8,102,27.6
			c2.4,0.9,4.7,1.4,7.2,0.1c23.2-11.6,48.3-16.6,73.3-22.2c8.6-1.9,17.2-3.6,25.9-5.3c2.7-0.5,5.5-1.3,8.3-0.2
			c2.6,2.9,0.3,5.4-1.1,7.6c-8.9,14.5-20.5,26.6-34,36.8c-12.6,9.6-26.9,15.9-42,20.4c-5.9,1.8-12.1,1.7-18.2,2.3
			C143.9,256.6,142.4,256,141,257z"/>
		<path class="st2" d="M198,22.2c-12.4,13.7-28.1,17.6-45.7,15.3c-3.4-0.4-5.4-0.1-7.6,2.8c-14.5,19-44,20-60.1,2.2
			c-2-2.2-4.3-4.2-5.5-7.1c-0.7-1.7-2.1-2.5-4-2.4c-9.5,0.7-18.9-0.5-28.2-2.2c-0.2-2.8,1.9-4.1,3.7-5.4
			C64.4,14.9,79.7,7.6,96.4,3.2c6.7-1.7,13.7-1.1,20.6-2.2c8,0,16,0,24,0c2.8,1.1,5.9,0.8,8.8,0.8c16.3,0.5,30.5,7.1,44.4,14.8
			C196.2,17.7,198.9,18.9,198,22.2z"/>
		<path class="st3" d="M16.9,190c3.4,8.2,8.9,15.2,14.6,21.8c22.1,25.2,49.6,40.5,83.2,44.3c0.8,0.1,1.5,0.6,2.3,0.9
			c-37.4,0-74.8,0-112.3,0.1c-3.1,0-3.8-0.7-3.8-3.8C1,215.5,1,177.8,1,140c0.9,4.7,1.8,9.3,2.8,14c2,0.8,2.2,2.8,2.7,4.5
			c2.5,9.2,5.4,18.3,9.8,26.8C17,186.8,17.4,188.4,16.9,190z"/>
		<path class="st3" d="M117,1c-4.2,1.7-8.7,1.6-13.1,2.5C82.6,7.8,63.7,17,47,30.8C21,53.3,5.4,81.3,1.8,115.7
			c-0.1,0.8-0.6,1.5-0.8,2.3C1,80.2,1,42.5,0.9,4.7c0-3.1,0.7-3.8,3.8-3.8C42.2,1,79.6,1,117,1z"/>
		<path class="st3" d="M198,22.2c-6.2-6.2-14.3-9-22-12.2c-10.6-4.4-21.7-7.2-33.3-8.1c-0.6-0.1-1.2-0.6-1.8-0.8
			c37.5,0,75,0,112.5-0.1c3,0,3.6,0.6,3.6,3.6C257,42,257,79.5,257,117c-2.2-9.8-3.5-19.8-6.9-29.4C240.9,61.2,224.7,40.2,202,24
			C200.8,23.2,199.7,21.9,198,22.2z"/>
		<path class="st3" d="M141,257c9.8-2.2,19.8-3.5,29.4-6.9c30.1-10.5,52.8-29.9,69.4-56.9c0.6-1,0.9-2.1,1.3-3.2
			c-0.6-1.9,0-3.6,0.9-5.2c4.3-8.6,7.4-17.6,9.8-26.9c0.4-1.6,0.7-3.3,2.5-4c0.9-4.3,1.8-8.6,2.7-13c0,37.5,0,75,0.1,112.5
			c0,3-0.6,3.6-3.6,3.6C216,257,178.5,257,141,257z"/>
		<path class="st4" d="M254.3,154c-2.2,12.8-6.4,24.9-13.2,36.1c-21.6,3.9-43.1,8.3-64.3,13.8c-15,3.9-29.9,7.9-43.6,15.5
			c-1.6,0.9-3.2,1.4-5.2,0.6c-29.9-12.1-61.2-19.1-92.6-26c-6.2-1.4-12.3-2.7-18.5-4C10.1,178.9,6,166.8,3.8,154
			c9-3.6,18.6-4.2,27.9-5.9c3.7-0.7,7.5-0.9,11.3-1.3c1.6,4.9-0.1,9.3-2.5,13.8c5.3,1.3,10.2,0.9,16.1,0.2c-4-4.7-4.2-9.8-3.5-15
			c7.6-1.5,15.2-1.9,22.9-1.8c2,1.4,1.5,3.5,1.5,5.5c0.1,6,0,11.9,0.1,17.9c0,1.9-0.5,4,1.4,5.5c0.5,0.2,1,0.5,1.5,0.7
			c1.5,0.4,3,0.4,4.5,0.4c26.7,0,53.4,0.1,80-0.1c2.5,0.2,3.5-2.1,5.2-3.2c7.8-5.3,11.5-12.2,9.9-21.8c-0.3-1.7,0.1-3.7,1.9-4.8
			c7.7-0.2,15.3,0.4,22.9,1.8c1.4,2.6-0.8,4.2-1.7,6.1c-1.7,3.6-5.3,6.2-5.4,10.5c3.2,2.1,6.8,0.8,10.3,1.1c2.3,0.2,4.5,0.2,5.1,3
			c0.6,2.8-0.9,4.5-3.3,5.3c-2.6,0.9-4.8,2.3-6.4,4.5c-1.5,2.1-1,3.6,1.6,3.6c5.8,0.1,11.5,0.3,17.9-0.2c-1.5-3.5-6-3.7-6.3-7.3
			c-0.2-2.5-1.2-5.1,0.7-7.4c1.8-2,4.2-1.2,6.4-1.5c3.4-0.3,6.9,0.9,10-1.2c0.8-2.9-1.7-4.4-2.7-6.4c-1.1-2.2-3.4-4.1-2.3-7.1
			C237.5,149.4,246,151,254.3,154z"/>
		<path class="st5" d="M76.7,111.1c6-8.9,12.1-17.9,18-26.8c1.1-1.7,2.4-2.4,4.5-2.4c17.9,0.1,35.8,0,53.8,0c1.2,0,2.3-0.1,3.2,0.9
			c4.7,7.3,7.3,15.5,10.2,23.5c0.8,2.2,1.1,4.6-1.6,6.1c-1.9,0.9-3.9,0.7-5.9,0.7c-25,0-49.9,0-74.9,0c-1.7,0-3.3,0.1-4.9-0.5
			c-0.6-0.2-1.2-0.4-1.8-0.8C77.1,111.6,76.9,111.3,76.7,111.1z"/>
		<path class="st6" d="M194.1,163.8c2.6-6.6,7.8-11.7,10.9-18.1c0.7-0.8,2.1-1.7-0.1-2.2c-1.4-0.3-2.9,0-5,0
			c4-6.1,7.7-11.7,11.7-17.9c-5.1,0.5-5.1-1-2.6-4.2c2.4-3.1,4.4-6.6,6.9-10.4c3.2,4.7,6.2,9.2,9.1,13.7c-0.9,1.9-2.9,0.1-4.2,1.7
			c2.6,4.2,5.3,8.4,8,12.7c2.1,4.2-2.6,2.7-3.6,4.4c1.2,1.8,2.4,3.6,3.6,5.4c3.1,4.9,6.2,9.8,9.2,14.7c-3.3,2.1-6.9,0.6-10.4,0.9
			c-2.8,0.3-5.6,0.1-8.4,0.1c-2.1-0.2-4.1,1.1-6.2,0.5c-4.5-1.1-9.2-0.2-13.7-0.6C197.5,164.3,195.6,165.2,194.1,163.8z"/>
		<path class="st7" d="M182,144c-0.1,4.6-0.5,9.3-0.2,13.9c0.2,3.7-1,6.2-3.9,8.4c-3.8,2.9-7.3,6.3-10.9,9.4c-1.6-1.2-2-2.9-2-4.8
			c-0.1-18.7-0.2-37.5,0.1-56.2c0-0.7,0.2-1.3,0.4-1.9c2.3-5.5,6.7-9.1,11.2-12.7c1.4-1.1,2.8-2.2,4.8-2c0.1,13.1,0.2,26.3,0.3,39.4
			C181.8,139.6,181.9,141.8,182,144z"/>
		<path class="st8" d="M53,145.7c0.8,1.3,1.5,2.6,2.3,3.9c0.3,0.4,0.9,1.1,0.8,1.2c-4.7,5.5,3.8,7.2,3.2,11.9
			c-7.2,0-14.5,0.7-22.4-0.4c1.6-2.5,3.1-4.8,4.4-7.1c0.6-1.1,3.4-2.4-0.4-3.7c-1.1-0.4,1.7-2.9,2.1-4.8c3.2-2.7,0.5-7.8,4.1-10.4
			c0.4-0.3,0.6-0.7,1.4-1.6c0.8,3.3,5.9,4.4,2.8,8.8C51.1,143.7,52.4,145,53,145.7z"/>
		<path class="st9" d="M181.5,98.1c-4.8,4.4-9.7,8.8-14.5,13.2c-0.4,0.2-0.7,0.1-0.9-0.2c-2.5-8.6-6.5-16.6-9.6-25
			c-0.4-1-1.4-2-0.3-3.1C164.7,87.7,173.5,92.3,181.5,98.1z"/>
		<path class="st10" d="M77,175.8c-1.7-4.1-0.6-8.4-0.8-12.6c-0.3-6.4-0.2-12.9-0.3-19.3c0.1-9.2,0.2-18.3,0.3-27.5
			c0-1.8-0.5-3.7,0.5-5.4c0,0,0.3,0.4,0.3,0.4c1.9,1.5,1.5,3.6,1.5,5.5c0,17.7,0,35.5,0,53.2C78.5,172.2,78.7,174.3,77,175.8z"/>
		<path class="st11" d="M225.1,143.4c1.1-1.5,3.9-1.7,3.6-4.4c0.8,1.2,1.6,2.3,3.1,4.4C229.1,143.4,227.1,143.4,225.1,143.4z"/>
		<path class="st10" d="M166,111c0.3,0.1,0.6,0.2,0.9,0.2c0,21.5,0,43,0.1,64.4c-2.3,0.1-4.6,0.4-6.9,0.4c-27.4,0-54.7-0.1-82.1-0.2
			c-0.7-1.1-0.5-2.2-0.5-3.4c0-19.3,0-38.5,0-57.8c0-1.1-0.3-2.3,0.5-3.4c24-0.1,48.1-0.1,72.1-0.2C155.4,111.1,160.7,111.1,166,111
			z"/>
		<path class="st12" d="M194.1,163.8c6.5,0,13.1,0.1,19.6,0.1c3.1,2.1,1.7,6.4,4.3,8.8c0.8,2.4,3.3,1.8,4.9,2.9
			c1.6,1.1,3.5,2.4,2.9,4.7c-0.6,2.2-2.7,1.6-4.2,1.6c-6,0.1-11.9,0.1-17.9,0c-4-0.1-5.2-2.2-2.9-5.8c1.9-2.9,4.4-5.5,8.1-6.1
			c1.8-0.3,3.3-0.6,3.1-2.9c-0.3-2.4-2.2-2-3.8-2.2C203.4,164.4,198.6,166.3,194.1,163.8z"/>
		<path class="st13" d="M46.9,174.9c-1.8,0-3.7,0.1-5.5,0.1c-1.4-0.1-3.2,0.6-4-1.1c-0.9-1.8,0.5-3.1,1.6-4.4
			c3.5-4,6.4-4.1,12.1-0.4C51.5,172.3,48.5,173.1,46.9,174.9z"/>
		<path class="st14" d="M78.1,111.4c0,21.5,0,43-0.1,64.5c0,0-0.5,0.1-0.5,0.1s-0.5-0.2-0.5-0.2c0-21.4,0-42.9-0.1-64.3
			C77.3,111.4,77.7,111.4,78.1,111.4z"/>
		<path class="st1" d="M46.9,174.9c-0.2-3,2.4-4.2,4.1-5.9c0.9,0.4,1.8,0.7,2.8,1.1c1.7,0.7,2.9,2,2.6,3.8c-0.4,1.7-2.2,1-3.5,1.1
			C50.9,175,48.9,174.9,46.9,174.9z"/>
		<path class="st15" d="M217.9,172.7c-4.8-1.3-4.8-5-4.3-8.8c1.4-0.8,2.9-1,4.4-0.1c0.6,0.3,0.6,0.7,0.1,1.2
			C218.1,167.6,218,170.2,217.9,172.7z"/>
		<path class="st16" d="M218.2,165c0-0.4-0.1-0.8-0.1-1.2c6.6-0.1,13.3-0.2,19.9-0.3c-2.1,2.5-4.9,1.3-7.4,1.4
			C226.4,165.1,222.3,165,218.2,165z"/>
		<path class="st17" d="M89.9,157.1c-0.1-1.3-0.2-2.6-0.2-4c0.7-2,3.2-2.3,4.2-4c1.6-0.8,3.3-1,5-0.2c2.1,0.7,2.9,2.8,4.4,4
			c0.7,1.4,0.5,2.8,0.3,4.3c-1.5,1.5-2.8,3.1-4.8,4c-1.4,0.5-2.8,0.9-4.2,0C93,159.8,91.4,158.5,89.9,157.1z"/>
		<path class="st18" d="M114.1,157c0-1.4,0-2.8,0-4.1c1.6-1.4,3.1-3.1,4.8-4.5c1.4,0,2.8,0,4.2,0c1.7,1.4,3.2,3,4.8,4.5
			c0,1.4,0,2.8,0,4.2c-1.6,1.5-3.1,3.1-4.8,4.5c-1.4,0-2.8,0-4.2,0C117.2,160.2,115.7,158.6,114.1,157z"/>
		<path class="st19" d="M155,152.9c0,1.4,0,2.7,0,4.1c-1.6,1.5-3.1,3.1-4.8,4.6c-1.4,0-2.9,0-4.3,0c-1.6-1.4-3.1-3-4.7-4.5
			c0-1.4,0-2.8,0-4.2c1.6-1.4,3.1-3.1,4.7-4.4c1.4-0.2,2.8-0.4,4.2,0.3C151.5,150.3,153.5,151.3,155,152.9z"/>
		<path class="st20" d="M93.7,131.5c-2.8,0-4.5-1-3.7-4.2c1.1-2,3.6-2.2,4.7-4.2c1.4,0,2.9,0,4.3-0.1c1.2,1.7,3.7,2,4.3,4.3
			c2.1,4.5-1.6,3.7-3.8,4.2c0.7,1.5,0.9,3-0.4,4.4c-1.4,0.1-2.9,0.4-4.3-0.4C93.5,134.3,93.5,132.9,93.7,131.5z"/>
		<path class="st21" d="M118.6,131.6c-2.4-0.5-5.6-0.3-4.6-4.4c1-2.1,3.6-2.3,4.8-4.1c1.4,0,2.8,0,4.2,0c1.2,1.8,3.8,2.1,4.8,4.1
			c1.1,4.2-2.1,3.9-4.5,4.4c0.7,1.5,1.1,2.9-0.3,4.2c-1.4,0-2.8,0-4.2,0C117.6,134.5,117.9,133.1,118.6,131.6z"/>
		<path class="st22" d="M150.2,135.8c-1.4,0-2.9,0-4.3,0c-1.3-1.3-0.9-2.8-0.3-4.2c-1.3-1.1-4.1,0.8-4.4-2c-0.3-2.4,2.1-1.5,3.2-2.1
			c-0.2-1.7,0.1-3.2,1.5-4.4c1.4,0,2.8,0,4.2,0c1.2,1.9,3.8,2.1,4.8,4.2c1,4.1-2.1,3.9-4.5,4.4C151.1,133.1,151.4,134.5,150.2,135.8
			z"/>
		<path class="st23" d="M118.9,148.4c1.1,4.4-1.4,4.9-4.8,4.5C112.9,148.4,115.4,147.9,118.9,148.4z"/>
		<path class="st24" d="M145.9,148.4c1.1,4.3-1.2,5-4.7,4.4C140.1,148.6,142.4,147.9,145.9,148.4z"/>
		<path class="st25" d="M127.9,152.9c-3.4,0.5-5.9-0.1-4.8-4.5C126.6,147.9,129,148.5,127.9,152.9z"/>
		<path class="st26" d="M114.1,157c3.5-0.5,5.8,0.3,4.8,4.6C115.3,162.2,112.9,161.5,114.1,157z"/>
		<path class="st27" d="M123.1,161.6c-1.1-4.3,1.2-5.1,4.8-4.5C129,161.4,126.7,162.2,123.1,161.6z"/>
		<path class="st28" d="M141.2,157.1c3.6-0.6,5.7,0.4,4.7,4.5C142.2,162.2,140.1,161.3,141.2,157.1z"/>
		<path class="st29" d="M150.2,161.6c-1.1-4.3,1.3-5,4.8-4.6C156.1,161.5,153.8,162.2,150.2,161.6z"/>
		<path class="st30" d="M98.9,161.2c-0.8-4.2,1.7-4.5,4.8-4C104.4,161.2,102.7,162.5,98.9,161.2z"/>
		<path class="st31" d="M155,152.9c-3.1,0.3-5.8,0.2-4.9-4.2C153.8,147.6,156.1,148.3,155,152.9z"/>
		<path class="st32" d="M103.3,152.9c-3.1,0.4-5.2-0.3-4.4-4C102.4,147.9,104.8,148.3,103.3,152.9z"/>
		<path class="st33" d="M89.9,157.1c3.1-0.4,5.3,0.3,4.7,4.1C90.8,162.4,88.8,161.5,89.9,157.1z"/>
		<path class="st34" d="M94.6,123.1c0.8,4.1-1.5,4.6-4.7,4.2C88.5,122.6,91.2,122.4,94.6,123.1z"/>
		<path class="st35" d="M103.2,127.3c-3.3,0.5-5.1-0.6-4.3-4.3C102.2,122.6,105.1,122.5,103.2,127.3z"/>
		<path class="st36" d="M118.9,123.1c1,4.4-1.7,4.6-4.8,4.1C113,122.7,115.6,122.4,118.9,123.1z"/>
		<path class="st37" d="M127.9,127.2c-3.2,0.5-5.8,0.3-4.8-4.1C126.4,122.4,128.9,122.8,127.9,127.2z"/>
		<path class="st38" d="M145.9,123.1c-0.4,1.5,1.2,3.6-1.5,4.4c-1.6-0.3-4,0.2-3.3-2.8C141.8,121.4,144.2,123.4,145.9,123.1z"/>
		<path class="st39" d="M155,127.2c-3.2,0.4-5.8,0.2-4.8-4.2C153.5,122.4,156.1,122.7,155,127.2z"/>
		<path class="st40" d="M93.9,149c1.1,3.9-1.6,3.9-4.2,4C87.1,147.6,91.4,149.3,93.9,149z"/>
		<path class="st41" d="M123.1,135.8c0.1-1.4,0.2-2.8,0.3-4.2c1.7,0.7,5.3-1.3,4.5,2.8C127.3,137.3,124.7,135.5,123.1,135.8z"/>
		<path class="st42" d="M118.6,131.6c0.1,1.4,0.2,2.8,0.3,4.2c-1.7-0.4-4.3,1.5-4.8-1.4C113.3,130.2,116.9,132.3,118.6,131.6z"/>
		<path class="st43" d="M98.9,135.9c0-1.5-0.4-3,0.4-4.3c1.4,0.8,4.4-1.2,4.3,2.3C103.6,137.5,100.7,135.5,98.9,135.9z"/>
		<path class="st44" d="M145.6,131.6c0.1,1.4,0.2,2.8,0.3,4.2c-1.6-0.2-4,1.3-4.7-1.2C140.1,130.4,143.8,132.1,145.6,131.6z"/>
		<path class="st45" d="M150.2,135.8c0.1-1.4,0.2-2.8,0.2-4.2c1.7,0.6,5.3-1.4,4.6,2.8C154.5,137.4,151.8,135.4,150.2,135.8z"/>
		<path class="st46" d="M93.7,131.5c1.4,1,0.7,2.6,1,4c-1.9,0.4-4.2,1.8-4.9-1.3C89.1,130.8,92.2,132.2,93.7,131.5z"/>
	</g>
</g>
</svg>
