<svg class="svgicon" id="svg27" preserveAspectRatio="xMidYMid meet" xmlns="http://www.w3.org/2000/svg" viewBox="0 0 128 128"><style> #svg27 path, #svg27 circle, #svg27 polygon, #svg27 rect { fill: rgb(66, 166, 255) } #svg27 defs &gt; path { fill: none }  #svg27 path[fill="none"], #svg27 circle[fill="none"], #svg27 polygon[fill="none"], #svg27 rect[fill="none"] { fill: none } </style><path d="M104.821,40.292c-1.406-2.446-2.94-2.974-4.819-4.031L68.221,21.408c-2.315-1.081-6.067-1.081-8.382,0L28.059,36.26 c-2.493,1.409-4.027,2.688-4.986,4.414c-0.958,1.725-1.214,3.771-1.48,6.837v39.206c0,2.855,2.151,4.003,4.316,5.169l32.727,14.648 c0.143,0,3.554,0.867,5.471,0.867c1.918,0,5.258-0.867,5.258-0.867l32.727-14.648c2.09-1.071,4.316-2.314,4.316-5.169V47.511 C106.339,44.509,106.167,42.633,104.821,40.292z M83.292,36.888c2.885,0,5.224,1.392,5.224,3.109s-2.338,3.109-5.224,3.109 s-5.224-1.392-5.224-3.109S80.406,36.888,83.292,36.888z M72.844,32.224c2.885,0,5.224,1.392,5.224,3.109 c0,1.718-2.338,3.11-5.224,3.11c-2.885,0-5.223-1.392-5.223-3.11C67.621,33.616,69.959,32.224,72.844,32.224z M72.098,47.086 c0,1.718-2.338,3.109-5.224,3.109c-2.884,0-5.223-1.391-5.223-3.109c0-1.717,2.339-3.109,5.223-3.109 C69.76,43.977,72.098,45.369,72.098,47.086z M62.397,27.374c2.885,0,5.224,1.393,5.224,3.109c0,1.718-2.339,3.108-5.224,3.108 s-5.224-1.391-5.224-3.108C57.174,28.766,59.513,27.374,62.397,27.374z M56.428,39.313c2.885,0,5.224,1.392,5.224,3.11 c0,1.717-2.339,3.109-5.224,3.109c-2.884,0-5.224-1.392-5.224-3.109C51.204,40.705,53.543,39.313,56.428,39.313z M45.98,34.462 c2.885,0,5.224,1.392,5.224,3.11c0,1.717-2.338,3.109-5.224,3.109c-2.884,0-5.223-1.392-5.223-3.109 C40.758,35.854,43.096,34.462,45.98,34.462z M32.652,86.85c-2.166,0.668-4.508-0.69-5.231-3.035 c-0.724-2.344,0.445-4.787,2.611-5.455c2.165-0.668,4.507,0.691,5.23,3.035C35.986,83.74,34.817,86.182,32.652,86.85z M34.666,63.003c-2.166,0.668-4.507-0.69-5.23-3.035c-0.724-2.344,0.445-4.786,2.611-5.454c2.165-0.669,4.507,0.69,5.231,3.034 C38,59.893,36.831,62.335,34.666,63.003z M42.912,78.558c-2.165,0.668-4.507-0.691-5.23-3.035c-0.724-2.345,0.445-4.787,2.611-5.455 c2.165-0.668,4.507,0.69,5.23,3.035C46.247,75.446,45.078,77.889,42.912,78.558z M52.937,95.374 c-2.166,0.668-4.507-0.691-5.231-3.035c-0.724-2.345,0.446-4.787,2.611-5.455s4.508,0.69,5.231,3.035 C56.271,92.263,55.102,94.705,52.937,95.374z M55.033,70.187c-2.166,0.668-4.507-0.691-5.231-3.035 c-0.723-2.345,0.445-4.787,2.611-5.455s4.507,0.69,5.231,3.035C58.367,67.076,57.198,69.518,55.033,70.187z M75.961,71.628 c-2.094,0.573-4.285-0.764-4.892-2.987c-0.607-2.223,0.597-4.489,2.691-5.061c2.094-0.573,4.284,0.764,4.893,2.987 C79.261,68.789,78.056,71.055,75.961,71.628z M86.511,78.952c-2.094,0.573-4.285-0.764-4.893-2.986 c-0.608-2.223,0.597-4.489,2.691-5.062c2.094-0.572,4.285,0.766,4.892,2.988C89.81,76.113,88.604,78.379,86.511,78.952z M97.06,86.277c-2.093,0.572-4.284-0.765-4.892-2.987c-0.608-2.223,0.597-4.489,2.691-5.062c2.094-0.573,4.285,0.766,4.893,2.988 C100.359,83.438,99.154,85.704,97.06,86.277z M103.118,41.963c-0.119,0.054-0.237,0.107-0.357,0.161 C90.226,47.782,77.69,53.441,65.154,59.099c0,0.609,0,1.219,0,1.827c0,14.655,0,29.311,0,43.966c0,1.451-2.25,1.451-2.25,0 c0-0.845,0-1.688,0-2.534c0-14.413,0-28.826,0-43.239c-12.394-5.719-24.788-11.438-37.181-17.156 c-1.317-0.607-0.173-2.546,1.135-1.943c0.054,0.025,0.108,0.05,0.163,0.075c12.328,5.688,24.656,11.377,36.985,17.066 c12.659-5.714,25.317-11.427,37.976-17.141C103.293,39.429,104.438,41.367,103.118,41.963z"></path></svg>